<svg width="23" height="16" viewBox="0 0 23 16" fill="none" xmlns="http://www.w3.org/2000/svg">
<path d="M20.7272 0.0449219H2.54543C1.29024 0.0449219 0.272705 1.06246 0.272705 2.31765V13.6813C0.272705 14.9365 1.29024 15.954 2.54543 15.954H20.7272C21.9824 15.954 23 14.9365 23 13.6813V2.31765C23 1.06246 21.9824 0.0449219 20.7272 0.0449219Z" fill="#012841"/>
<path d="M23 3.4541H0.272705V6.86319H23V3.4541Z" fill="#5DCC96"/>
<path d="M19.5909 10.2725H17.3181C16.6905 10.2725 16.1818 10.7812 16.1818 11.4088C16.1818 12.0364 16.6905 12.5452 17.3181 12.5452H19.5909C20.2184 12.5452 20.7272 12.0364 20.7272 11.4088C20.7272 10.7812 20.2184 10.2725 19.5909 10.2725Z" fill="white"/>
</svg>
